<svg xmlns="http://www.w3.org/2000/svg" width="390" height="512" viewBox="0 0 390 512">
  <g id="admin" transform="translate(0 0)">
    <path id="Path_1" data-name="Path 1" d="M45,512a14.994,14.994,0,0,1-15-15V435a15,15,0,0,1,30,0v62A14.994,14.994,0,0,1,45,512Zm0,0" fill="#dbdbdb"/>
    <path id="Path_2" data-name="Path 2" d="M345,512a14.994,14.994,0,0,1-15-15V435a15,15,0,0,1,30,0v62A14.994,14.994,0,0,1,345,512Zm0,0" fill="#b8b8b8"/>
    <path id="Path_3" data-name="Path 3" d="M360,315v60a15,15,0,0,1-30,0V330H210v45a15,15,0,0,1-30,0V330H60v45a15,15,0,0,1-30,0V315a14.851,14.851,0,0,1,15-15H180V255a15,15,0,0,1,30,0v45H345A14.851,14.851,0,0,1,360,315Zm0,0" fill="#dbdbdb"/>
    <path id="Path_4" data-name="Path 4" d="M360,315v60a15,15,0,0,1-30,0V330H210v45a14.854,14.854,0,0,1-15,15V240a14.851,14.851,0,0,1,15,15v45H345A14.851,14.851,0,0,1,360,315Zm0,0" fill="#b8b8b8"/>
    <path id="Path_5" data-name="Path 5" d="M210,435v62a15,15,0,0,1-30,0V435a15,15,0,0,1,30,0Zm0,0" fill="#dbdbdb"/>
    <path id="Path_6" data-name="Path 6" d="M210,435v62a14.854,14.854,0,0,1-15,15V420A14.851,14.851,0,0,1,210,435Zm0,0" fill="#b8b8b8"/>
    <path id="Path_7" data-name="Path 7" d="M75,450H15A14.994,14.994,0,0,1,0,435V375a14.994,14.994,0,0,1,15-15H75a14.994,14.994,0,0,1,15,15v60A14.994,14.994,0,0,1,75,450Zm0,0" fill="#dbdbdb"/>
    <path id="Path_8" data-name="Path 8" d="M225,360H165a14.851,14.851,0,0,0-15,15v60a14.854,14.854,0,0,0,15,15h60a14.854,14.854,0,0,0,15-15V375A14.851,14.851,0,0,0,225,360Zm0,0" fill="#dbdbdb"/>
    <path id="Path_9" data-name="Path 9" d="M240,375v60a14.854,14.854,0,0,1-15,15H195V360h30A14.851,14.851,0,0,1,240,375Zm0,0" fill="#b8b8b8"/>
    <path id="Path_10" data-name="Path 10" d="M375,450H315a14.994,14.994,0,0,1-15-15V375a14.994,14.994,0,0,1,15-15h60a14.994,14.994,0,0,1,15,15v60A14.994,14.994,0,0,1,375,450Zm0,0" fill="#b8b8b8"/>
    <path id="Path_11" data-name="Path 11" d="M195,0C120.6,0,60,60.6,60,135a134.972,134.972,0,0,0,60,112.2L195,270l75-22.8A134.972,134.972,0,0,0,330,135C330,60.6,269.4,0,195,0Zm0,0" fill="rgba(255,255,255,0.92)"/>
    <path id="Path_12" data-name="Path 12" d="M330,135a134.972,134.972,0,0,1-60,112.2L195,270V0c74.4,0,135,60.6,135,135Zm0,0" fill="#fff"/>
    <path id="Path_13" data-name="Path 13" d="M195,60a45,45,0,1,0,45,45A44.937,44.937,0,0,0,195,60Zm0,0" fill="#fff5f5"/>
    <path id="Path_14" data-name="Path 14" d="M240,105a44.939,44.939,0,0,1-45,45V60A44.937,44.937,0,0,1,240,105Zm0,0" fill="#e1ebf0"/>
    <path id="Path_15" data-name="Path 15" d="M270,225v22.2a134.751,134.751,0,0,1-150,0V225a75,75,0,0,1,150,0Zm0,0" fill="#fff5f5"/>
    <path id="Path_16" data-name="Path 16" d="M270,225v22.2A134.117,134.117,0,0,1,195,270V150A75.029,75.029,0,0,1,270,225Zm0,0" fill="#e1ebf0"/>
  </g>
</svg>
