<svg id="Capa_1" enable-background="new 0 0 496.7 496.7" height="512" viewBox="0 0 496.7 496.7" width="512" xmlns="http://www.w3.org/2000/svg"><g><g id="XMLID_178_"><g><path d="m344.93 467.567h-191.16l31.33-30.63v-76.66h129.02l-.52 76.66z" fill="#c7c0c7"/></g></g><path d="m314.12 360.277h-106.784-22.236v76.66l-31.33 30.63h31.947l23.109-22.592c3.071-3.002 4.802-7.115 4.802-11.409v-11.206c0-4.072 3.301-7.374 7.374-7.374h92.748z" fill="#b8afb8"/><path d="m458.21 21.637h-419.72c-21.25 0-38.49 17.23-38.49 38.49v282.8l52.097 23.931h414.808l29.795-23.931v-282.8c0-21.26-17.24-38.49-38.49-38.49z" fill="#f3fbff"/><g id="XMLID_177_"><g><path d="m88.594 363.184c-21.25 0-38.49-17.23-38.49-38.49v-296.37c0-2.282.21-4.514.591-6.687h-12.205c-21.25 0-38.49 17.23-38.49 38.49v282.8l52.097 23.931h414.808l4.575-3.674z" fill="#e3f6fc"/><path d="m496.7 342.927v13.57c0 21.26-17.24 38.49-38.49 38.49h-419.72c-21.25 0-38.49-17.23-38.49-38.49v-13.57z" fill="#d6d1d6"/><path d="m88.594 363.184c-14.655 0-27.401-8.197-33.902-20.257h-54.692v13.57c0 21.26 17.24 38.49 38.49 38.49h419.72c18.969 0 34.731-13.733 37.899-31.803z" fill="#c7c0c7"/></g></g><g><path d="m248.85 376.028c-4.143 0-7.5-3.358-7.5-7.5v-3.34c0-4.142 3.357-7.5 7.5-7.5s7.5 3.358 7.5 7.5v3.34c0 4.142-3.357 7.5-7.5 7.5z" fill="#b8afb8"/></g><g><path d="m358.119 475.063h-218.881c-4.143 0-7.5-3.358-7.5-7.5s3.357-7.5 7.5-7.5h218.881c4.143 0 7.5 3.358 7.5 7.5s-3.358 7.5-7.5 7.5z" fill="#b8afb8"/></g><g><path d="m174.288 291.728c-3.839 0-7.678-1.464-10.606-4.394l-76.784-76.784c-5.858-5.858-5.858-15.355 0-21.213l76.784-76.784c5.857-5.858 15.355-5.858 21.213 0s5.858 15.355 0 21.213l-66.178 66.178 66.178 66.178c5.858 5.858 5.858 15.355 0 21.213-2.929 2.929-6.768 4.393-10.607 4.393z" fill="#e5827f"/></g><g><path d="m323.195 291.728c-3.839 0-7.678-1.464-10.606-4.394-5.858-5.858-5.858-15.355 0-21.213l66.178-66.178-66.178-66.178c-5.858-5.858-5.858-15.355 0-21.213 5.857-5.858 15.355-5.858 21.213 0l76.784 76.784c5.858 5.858 5.858 15.355 0 21.213l-76.784 76.784c-2.93 2.931-6.768 4.395-10.607 4.395z" fill="#e5827f"/></g><g><path d="m231.453 287.873c-1.054 0-2.124-.111-3.195-.344-8.096-1.756-13.235-9.744-11.479-17.839l33.824-155.883c1.757-8.096 9.744-13.236 17.84-11.478 8.096 1.756 13.235 9.744 11.479 17.839l-33.825 155.882c-1.524 7.025-7.738 11.823-14.644 11.823z" fill="#ea9a98"/></g></g></svg>