<svg xmlns="http://www.w3.org/2000/svg" width="560.054" height="453.926" viewBox="0 0 560.054 453.926">
  <g id="coding" transform="translate(0.5 -21.137)">
    <g id="XMLID_178_" transform="translate(185.151 360.277)">
      <g id="Group_1" data-name="Group 1">
        <path id="Path_17" data-name="Path 17" d="M344.93,467.567H153.77l31.33-30.63v-76.66H314.12l-.52,76.66Z" transform="translate(-153.77 -360.277)" fill="#c8c8c8"/>
      </g>
    </g>
    <path id="Path_18" data-name="Path 18" d="M314.12,360.277H185.1v76.66l-31.33,30.63h31.947l23.109-22.592a15.955,15.955,0,0,0,4.8-11.409V422.36A7.374,7.374,0,0,1,221,414.986H313.75Z" transform="translate(28.507)" fill="#b8b8b8"/>
    <path id="Path_19" data-name="Path 19" d="M515.732,21.637H43.322C19.4,21.637,0,38.867,0,60.127v282.8l58.637,23.931H525.519l33.535-23.931V60.127c0-21.26-19.4-38.49-43.322-38.49Z" fill="rgba(252,252,252,0)" stroke="#fff" stroke-width="1"/>
    <g id="XMLID_177_" transform="translate(0 21.637)">
      <g id="Group_2" data-name="Group 2">
        <path id="Path_20" data-name="Path 20" d="M100.311,363.184c-24.06,0-43.58-17.23-43.58-38.49V28.324a34.288,34.288,0,0,1,.669-6.687H43.58C19.52,21.637,0,38.867,0,60.127v282.8l58.987,23.931H528.654l5.18-3.674Z" transform="translate(0 -21.637)" fill="rgba(249,249,249,0.19)"/>
        <path id="Path_21" data-name="Path 21" d="M559.054,342.927V356.5c0,21.26-19.4,38.49-43.322,38.49H43.322C19.4,394.987,0,377.757,0,356.5v-13.57Z" transform="translate(0 -21.637)" fill="#dcdcdc"/>
        <path id="Path_22" data-name="Path 22" d="M99.729,363.184c-16.5,0-30.845-8.2-38.163-20.257H0V356.5c0,21.26,19.407,38.49,43.328,38.49H515.8c21.353,0,39.1-13.733,42.662-31.8Z" transform="translate(0 -21.637)" fill="#cbcbcb"/>
      </g>
    </g>
    <g id="Group_3" data-name="Group 3" transform="translate(272.592 357.688)">
      <path id="Path_23" data-name="Path 23" d="M248.85,376.028a7.5,7.5,0,0,1-7.5-7.5v-3.34a7.5,7.5,0,0,1,15,0v3.34A7.5,7.5,0,0,1,248.85,376.028Z" transform="translate(-241.35 -357.688)" fill="#b7b7b7"/>
    </g>
    <g id="Group_4" data-name="Group 4" transform="translate(162.993 460.063)">
      <path id="Path_24" data-name="Path 24" d="M358.119,475.063H139.238a7.5,7.5,0,0,1,0-15H358.119a7.5,7.5,0,0,1,0,15Z" transform="translate(-131.738 -460.063)" fill="#b8b8b8"/>
    </g>
    <g id="Group_5" data-name="Group 5" transform="translate(100.698 108.159)">
      <path id="Path_25" data-name="Path 25" d="M174.288,291.728a14.946,14.946,0,0,1-10.606-4.394L86.9,210.55a15,15,0,0,1,0-21.213l76.784-76.784a15,15,0,0,1,21.213,21.213l-66.178,66.178,66.178,66.178a15,15,0,0,1-10.607,25.606Z" transform="translate(-82.504 -108.159)" fill="#3f999f"/>
    </g>
    <g id="Group_6" data-name="Group 6" transform="translate(352.481 108.158)">
      <path id="Path_26" data-name="Path 26" d="M323.2,291.728a15,15,0,0,1-10.606-25.607l66.178-66.178-66.178-66.178A15,15,0,0,1,333.8,112.552l76.784,76.784a15,15,0,0,1,0,21.213L333.8,287.333a14.949,14.949,0,0,1-10.607,4.395Z" transform="translate(-308.196 -108.158)" fill="#3f999f"/>
    </g>
    <g id="Group_7" data-name="Group 7" transform="translate(247.612 101.984)">
      <path id="Path_27" data-name="Path 27" d="M231.453,287.873a15.013,15.013,0,0,1-14.674-18.183L250.6,113.807a15,15,0,0,1,29.319,6.361L246.1,276.05a15,15,0,0,1-14.644,11.823Z" transform="translate(-216.435 -101.984)" fill="#71c4c9"/>
    </g>
  </g>
</svg>
