<svg xmlns="http://www.w3.org/2000/svg" width="371.984" height="496.324" viewBox="0 0 371.984 496.324">
  <g id="css" transform="translate(-70.008 -15.676)">
    <path id="Subtraction_1" data-name="Subtraction 1" d="M-244.008,100.128a255.453,255.453,0,0,1-84.292-14.2,254.876,254.876,0,0,1-72.474-39.4L-430-292.4H-58.016L-87.242,46.525a254.875,254.875,0,0,1-72.474,39.4A255.453,255.453,0,0,1-244.008,100.128ZM-346.23-53.122l6.088,72.1,96.132,27.167,96.13-27.167,11.911-141.069,0,.008h-88.186l92.148-46.9,3.982-47.144H-359.995l4.059,48.065h93.117l-89.344,44.672,4.157,49.239h159.374l-5.225,58.643L-244.011-1.922l-52.245-14.629-1.306-36.571Z" transform="translate(500.008 411.872)" fill="#a2b9b9"/>
    <g id="Group_1" data-name="Group 1">
      <path id="Path_5" data-name="Path 5" d="M165.352,67.224V33.787h48.065V15.676h-65.48V85.335h65.48V67.224Z" fill="#fff"/>
      <path id="Path_6" data-name="Path 6" d="M241.542,42.93V34.57h47.8V15.676H223.866V58.864H270.8v8.36H223.866V85.335h65.481V42.93Z" fill="#fff"/>
      <path id="Path_7" data-name="Path 7" d="M316.252,42.93V34.57h47.8V15.676h-65.48V58.864h46.933v8.36H298.576V85.335h65.48V42.93Z" fill="#fff"/>
    </g>
    <path id="Path_16" data-name="Path 16" d="M256,195.419v-43.9H405.387l-26.83,319.52L256,505.793V457.621l96.947-26.83,10.976-140.247h-87.2l91.466-47.562,4.268-47.562Z" transform="translate(-0.003)" fill="#d5e2e2"/>
  </g>
</svg>
