<svg xmlns="http://www.w3.org/2000/svg" width="370.887" height="495.204" viewBox="0 0 370.887 495.204">
  <g id="html-5" transform="translate(-71.105 -16.796)">
    <path id="Subtraction_2" data-name="Subtraction 2" d="M-912.105,108.526a255.472,255.472,0,0,1-83.577-13.954,254.911,254.911,0,0,1-72.018-38.75L-1097-284h370.887L-755.339,54.923a254.882,254.882,0,0,1-72.474,39.4A255.455,255.455,0,0,1-912.105,108.526ZM-1013.474-45.413l6.074,71.88,95.844,27.086,95.843-27.086,11.878-140.647H-971.177l-4.153-45.839,175.451-.921,3.967-47.007H-1027.2l11.956,141.563h158.9l-5.2,58.477L-911.556,5.638-963.645-8.954l-1.308-36.459h-48.521Z" transform="translate(1168.105 403.474)" fill="#a2b9b9"/>
    <path id="Path_12" data-name="Path 12" d="M151.159,16.8V41.117H127.921V16.8H106.3V86.513h21.618v-22.7h23.238v22.7h21.618V16.8Z" fill="#fff"/>
    <path id="Path_13" data-name="Path 13" d="M249.521,16.8H183.045V41.117h21.618V87.055H227.9V41.117h21.618Z" fill="#fff"/>
    <path id="Path_14" data-name="Path 14" d="M373.284,64.895V17.337h-23.24V87.055H406.79V64.895Z" fill="#fff"/>
    <path id="Path_15" data-name="Path 15" d="M314.914,17.337,298.7,42.2l-16.214-24.86H259.249V87.055h23.239V52.465L298.7,77.327l16.212-24.862v34.59h23.24V17.337Z" fill="#fff"/>
    <path id="Path_17" data-name="Path 17" d="M256.549,195.89V151.376H405.476l-26.83,317.691-122.1,35.367V457.482l96.487-26.83,10.976-141.467H256.549V244.062H368.28l4.268-48.172Z" transform="translate(0 -1)" fill="#d5e2e2"/>
  </g>
</svg>
