<svg xmlns="http://www.w3.org/2000/svg" width="445.868" height="512" viewBox="0 0 445.868 512">
  <g id="idea" transform="translate(-33.066)">
    <path id="Path_28" data-name="Path 28" d="M314.667,391.467c6.4-21.333,19.2-40.533,36.267-55.467A145.71,145.71,0,0,0,403.2,224c0-83.2-69.333-151.467-154.667-147.2C172.8,80,110.933,144,108.8,219.733,107.733,266.667,128,308.267,161.067,336A114.448,114.448,0,0,1,198.4,391.467Z" fill="rgba(216,113,154,0)" stroke="rgba(255,255,255,0.95)" stroke-width="4"/>
    <path id="Path_29" data-name="Path 29" d="M242.133,393.6h9.6L209.066,234.667h3.2a21.057,21.057,0,0,0,14.933-6.4,10.312,10.312,0,0,1,14.934,0,18.222,18.222,0,0,0,27.733,0,9.685,9.685,0,0,1,7.467-3.2,11.527,11.527,0,0,1,7.467,3.2c4.267,4.267,8.533,6.4,14.933,6.4h3.2L261.333,393.6h9.6l43.733-166.4c0-2.133,0-4.267-2.133-5.333a4.689,4.689,0,0,0-5.333,1.067q-3.2,3.2-6.4,3.2c-3.2,0-5.333-1.067-8.533-3.2-4.267-4.267-8.533-6.4-13.867-6.4s-9.6,2.133-13.867,6.4a10.31,10.31,0,0,1-14.933,0c-3.2-4.267-8.533-6.4-13.867-6.4h0c-5.333,0-10.667,2.133-13.867,6.4a12.112,12.112,0,0,1-8.533,3.2c-2.133,0-5.333-1.067-6.4-3.2a4.691,4.691,0,0,0-5.333-1.067c-2.133,1.067-3.2,3.2-2.133,5.333Z" fill="#fff"/>
    <g id="Group_8" data-name="Group 8">
      <path id="Path_30" data-name="Path 30" d="M222.933,489.6C228.267,502.4,241.067,512,256,512s27.733-9.6,33.067-22.4Z" fill="#356063"/>
      <path id="Path_31" data-name="Path 31" d="M295.467,490.667H217.6a19.12,19.12,0,0,1-19.2-19.2V390.4H314.667v81.067A19.121,19.121,0,0,1,295.467,490.667Z" fill="#356063"/>
    </g>
    <g id="Group_9" data-name="Group 9">
      <path id="Path_32" data-name="Path 32" d="M313.6,430.933H198.4A11.837,11.837,0,0,1,186.667,419.2h0A11.837,11.837,0,0,1,198.4,407.467H313.6A11.837,11.837,0,0,1,325.333,419.2h0A11.837,11.837,0,0,1,313.6,430.933Z" fill="#6a8182"/>
      <path id="Path_33" data-name="Path 33" d="M313.6,468.267H198.4a11.837,11.837,0,0,1-11.733-11.733h0A11.837,11.837,0,0,1,198.4,444.8H313.6a11.837,11.837,0,0,1,11.733,11.733h0A11.838,11.838,0,0,1,313.6,468.267Z" fill="#6a8182"/>
    </g>
    <g id="Group_10" data-name="Group 10">
      <path id="Path_34" data-name="Path 34" d="M256,0a10.69,10.69,0,0,0-10.667,10.667V46.934A10.69,10.69,0,0,0,256,57.6c6.4,0,10.667-4.267,10.667-10.667V10.667A10.69,10.69,0,0,0,256,0Z" fill="rgba(255,255,255,0.93)"/>
      <path id="Path_35" data-name="Path 35" d="M113.067,65.067A10.559,10.559,0,1,0,98.134,80l25.6,25.6a10.559,10.559,0,0,0,14.933-14.933Z" fill="rgba(255,255,255,0.93)"/>
      <path id="Path_36" data-name="Path 36" d="M80,212.267H43.733a10.69,10.69,0,0,0-10.667,10.667h0A10.69,10.69,0,0,0,43.733,233.6H80a10.69,10.69,0,0,0,10.667-10.667h0C90.667,217.6,85.333,212.267,80,212.267Z" fill="rgba(255,255,255,0.93)"/>
      <path id="Path_37" data-name="Path 37" d="M123.733,340.267l-25.6,25.6A10.559,10.559,0,0,0,113.066,380.8l25.6-25.6a10.559,10.559,0,1,0-14.933-14.933Z" fill="rgba(255,255,255,0.93)"/>
      <path id="Path_38" data-name="Path 38" d="M388.267,340.267A10.56,10.56,0,1,0,373.333,355.2l25.6,25.6a10.559,10.559,0,0,0,14.933-14.933Z" fill="rgba(255,255,255,0.93)"/>
      <path id="Path_39" data-name="Path 39" d="M468.267,212.267H432a10.69,10.69,0,0,0-10.667,10.667h0A10.69,10.69,0,0,0,432,233.6h36.267a10.69,10.69,0,0,0,10.667-10.667h0A10.69,10.69,0,0,0,468.267,212.267Z" fill="rgba(255,255,255,0.93)"/>
      <path id="Path_40" data-name="Path 40" d="M398.933,65.067l-25.6,25.6A10.559,10.559,0,0,0,388.266,105.6l25.6-25.6a10.559,10.559,0,0,0-14.933-14.933Z" fill="rgba(255,255,255,0.93)"/>
    </g>
  </g>
</svg>
